<svg xmlns="http://www.w3.org/2000/svg" viewBox="0 0 160 160" role="img" aria-label="RightsRadar advocate assistant"><defs><linearGradient id="g" x1="0" y1="0" x2="1" y2="1"><stop stop-color="#315fc4"/><stop offset="1" stop-color="#6d8ee8"/></linearGradient></defs><circle cx="80" cy="80" r="76" fill="url(#g)"/><circle cx="80" cy="61" r="27" fill="#f0c7a4"/><path d="M53 58c2-28 52-37 57 1-9-9-17-14-31-13-10 1-17 5-26 12Z" fill="#263247"/><path d="M35 145c4-35 22-51 45-51s41 16 45 51" fill="#172033"/><path d="m63 96 17 24 17-24-8-5H71Z" fill="#fff"/><path d="m80 120-7 25h14Z" fill="#315fc4"/><circle cx="70" cy="62" r="2.5" fill="#172033"/><circle cx="90" cy="62" r="2.5" fill="#172033"/><path d="M72 76c5 4 11 4 16 0" fill="none" stroke="#9a5f4a" stroke-width="2" stroke-linecap="round"/><g transform="translate(108 99)"><path d="M0 0v31M-13 7h26M-13 7l-8 14h16Zm26 0-8 14h16Z" fill="none" stroke="#f4d36b" stroke-width="3" stroke-linejoin="round"/><path d="M-7 32H7" stroke="#f4d36b" stroke-width="3" stroke-linecap="round"/></g></svg>